<?xml version="1.0" encoding="utf-8"?>
<!-- Generator: Adobe Illustrator 25.0.0, SVG Export Plug-In . SVG Version: 6.00 Build 0)  -->
<svg version="1.1" id="Layer_1" xmlns="http://www.w3.org/2000/svg" xmlns:xlink="http://www.w3.org/1999/xlink" x="0px" y="0px"
	 viewBox="0 0 500 250" enable-background="new 0 0 500 250" xml:space="preserve">
<g>
	<g>
		<path fill="#058236" d="M195.583,110.889c0,9.691-7.939,17.629-17.629,17.629h-33.197v-11.959h33.197
			c3.196,0,5.773-2.577,5.773-5.67c0-3.197-2.577-5.774-5.773-5.774h-18.042c-9.794,0-17.836-8.042-17.836-17.939
			c0-9.794,8.042-17.835,17.836-17.835h30.413v11.856h-30.413c-3.299,0-5.98,2.68-5.98,5.979s2.681,5.98,5.98,5.98h18.042
			C187.644,93.156,195.583,101.094,195.583,110.889z"/>
		<path fill="#058236" d="M251.252,81.299h-20.825v47.218h-11.959V81.299h-20.825V69.444h53.61V81.299z"/>
		<path fill="#058236" d="M310.532,99.136h-0.103c-0.103,16.186-13.299,29.382-29.589,29.382c-16.289,0-29.486-13.196-29.589-29.382
			v-0.104c0-0.103,0-0.103,0-0.103c0.103-16.289,13.299-29.383,29.589-29.383c16.289,0,29.486,13.094,29.589,29.383h0.103
			c0,0,0,0,0,0.103V99.136z M298.572,99.032c-0.103-9.691-8.041-17.629-17.732-17.629c-9.691,0-17.629,7.938-17.733,17.629
			c0.104,9.691,8.042,17.527,17.733,17.527C290.531,116.559,298.469,108.723,298.572,99.032z"/>
		<path fill="#058236" d="M371.356,128.518h-11.959c0-11.237-9.175-20.722-20.413-20.722h-9.279v20.722h-11.959V95.939h34.331
			c4.02,0,7.216-3.299,7.216-7.32c0-3.917-3.196-7.216-7.216-7.216h-34.331V69.547h34.331c10.515,0,19.176,8.557,19.176,19.073
			c0,7.114-3.918,13.3-9.588,16.599C367.644,111.095,371.356,119.548,371.356,128.518z"/>
		<path fill="#058236" d="M438.16,99.238v29.28h-11.856v-10.929h-35.362v10.929h-11.856v-29.28
			c0-16.289,13.299-29.486,29.589-29.486C424.964,69.753,438.16,82.949,438.16,99.238z M426.304,105.734v-6.496
			c0-9.691-7.938-17.629-17.629-17.629c-9.794,0-17.733,7.938-17.733,17.629v6.496H426.304z"/>
		<path fill="#058236" d="M499.5,125.219v3.299h-11.959v-3.299c0-11.237-9.176-20.413-20.413-20.413h-9.279v23.712H445.89V69.444
			h11.959v23.402h6.186l19.897-23.402H499.5l-21.444,25.361C490.531,99.238,499.5,111.197,499.5,125.219z"/>
	</g>
	<g>
		<path fill="#45AB34" d="M177.778,182.848h-15.96c-10.868,0-19.743-8.805-19.743-19.674c0-10.869,8.874-19.743,19.743-19.743h15.96
			v7.98h-15.96c-6.466,0-11.832,5.297-11.832,11.763c0,6.466,5.366,11.763,11.832,11.763h8.049v-7.774h-5.985v-7.979h13.896V182.848
			z"/>
		<path fill="#45AB34" d="M255.313,182.848h-7.979c0-7.498-6.123-13.827-13.621-13.827h-6.191v13.827h-7.98V161.11h22.907
			c2.683,0,4.815-2.201,4.815-4.884c0-2.614-2.132-4.816-4.815-4.816h-22.907V143.5h22.907c7.017,0,12.795,5.71,12.795,12.727
			c0,4.747-2.614,8.873-6.398,11.075C252.837,171.223,255.313,176.863,255.313,182.848z"/>
		<path fill="#45AB34" d="M335.256,163.243h-0.069c-0.069,10.8-8.874,19.605-19.743,19.605c-10.868,0-19.674-8.805-19.743-19.605
			v-0.069c0-0.069,0-0.069,0-0.069c0.069-10.869,8.874-19.605,19.743-19.605c10.869,0,19.674,8.736,19.743,19.605h0.069
			c0,0,0,0,0,0.069V163.243z M327.276,163.174c-0.069-6.466-5.366-11.763-11.832-11.763c-6.466,0-11.763,5.297-11.832,11.763
			c0.069,6.466,5.366,11.694,11.832,11.694C321.91,174.868,327.207,169.64,327.276,163.174z"/>
		<path fill="#45AB34" d="M416.093,163.105c0,10.869-8.805,19.743-19.674,19.743c-10.868,0-19.743-8.874-19.743-19.743V143.5h7.911
			v19.605c0,6.535,5.297,11.832,11.832,11.832c6.466,0,11.763-5.297,11.763-11.832V143.5h7.911V163.105z"/>
		<path fill="#45AB34" d="M465.768,182.848h-7.911v-17.472h20.775c3.852,0,7.017-3.165,7.017-7.018c0-3.851-3.165-6.948-7.017-6.948
			h-20.775V143.5h20.775c8.255,0,14.928,6.672,14.928,14.858c0,8.255-6.673,14.928-14.928,14.928h-12.864V182.848z"/>
	</g>
	<g>
		<g>
			<path fill="#45AB34" d="M83.374,96.879c-4.906,5.439-9.244,11.123-15.142,15.097c-4.267,2.875-10.323,2.08-14.141-1.627
				c-8.438-8.191-16.826-16.446-24.908-24.984c-5.192-5.485-4.741-11.647,0.467-16.356c4.956-4.481,10.567-3.983,15.949,1.355
				c6.43,6.378,12.055,13.526,18.888,19.524C69.811,94.559,75.021,99.314,83.374,96.879z"/>
		</g>
		<g>
			<path fill="#45AB34" d="M36.354,153.151c4.574-4.83,8.861-9.981,13.81-14.389c3.999-3.562,10.646-2.959,14.92,1.174
				c8.583,8.3,17.029,16.763,25.159,25.505c4.852,5.218,4.104,11.514-1.082,15.992c-4.538,3.918-10.512,3.332-15.328-1.292
				c-6.779-6.509-12.478-14.053-19.63-20.209C49.023,155.473,43.926,151.066,36.354,153.151z"/>
		</g>
		<g>
			<path fill="#45AB34" d="M80.3,93.36c-6.786-0.091-12.782-6.248-12.674-13.014c0.116-7.284,5.967-12.745,13.472-12.574
				c6.979,0.159,12.579,6.111,12.352,13.13C93.225,87.849,87.309,93.454,80.3,93.36z"/>
		</g>
		<g>
			<path fill="#45AB34" d="M25.512,169.74c0.016-6.955,5.795-12.766,12.768-12.841c7.209-0.077,13.14,5.816,13.066,12.983
				c-0.069,6.708-6.268,12.796-12.995,12.763C31.619,182.613,25.497,176.459,25.512,169.74z"/>
		</g>
	</g>
	<g>
		<g>
			<path fill="#058236" d="M87.71,148.646c-5.686-4.653-10.926-9.031-14.745-14.73c-2.829-4.223-2.222-10.208,1.552-14.078
				c8.432-8.645,16.955-17.206,25.62-25.616c4.317-4.19,10.518-3.718,14.947,0.679c4.525,4.492,4.627,10.046,0.295,14.822
				c-6.405,7.063-14.122,12.763-20.41,19.988C90.242,135.143,85.514,140.256,87.71,148.646z"/>
		</g>
		<g>
			<path fill="#058236" d="M31.283,102.457c5.256,4.854,10.378,8.896,14.614,13.716c3.316,3.772,2.447,10.372-1.503,14.484
				c-8.257,8.597-16.667,17.058-25.299,25.277c-4.678,4.455-10.938,3.877-15.309-0.713c-4.361-4.579-4.476-10.537,0.221-15.29
				c6.698-6.778,13.749-13.206,20.545-19.889C29.312,115.363,33.262,110.243,31.283,102.457z"/>
		</g>
		<g>
			<path fill="#058236" d="M104.222,133.83c7.156-0.013,12.604,5.187,12.671,12.094c0.07,7.158-5.888,13.044-13.096,12.939
				c-6.895-0.1-12.348-5.654-12.339-12.567C91.466,139.02,96.766,133.844,104.222,133.83z"/>
		</g>
		<g>
			<path fill="#058236" d="M2.407,104.433C2.319,96.979,7.57,91.352,14.609,91.357c7.141,0.004,12.852,5.59,12.854,12.569
				c0.002,7.301-5.416,12.821-12.559,12.795C7.934,116.695,2.488,111.341,2.407,104.433z"/>
		</g>
	</g>
</g>
</svg>
